<?xml version="1.0" encoding="UTF-8" standalone="no"?>
<svg
   xmlns:dc="http://purl.org/dc/elements/1.1/"
   xmlns:cc="http://creativecommons.org/ns#"
   xmlns:rdf="http://www.w3.org/1999/02/22-rdf-syntax-ns#"
   xmlns:svg="http://www.w3.org/2000/svg"
   xmlns="http://www.w3.org/2000/svg"
   xmlns:sodipodi="http://sodipodi.sourceforge.net/DTD/sodipodi-0.dtd"
   xmlns:inkscape="http://www.inkscape.org/namespaces/inkscape"
   inkscape:export-ydpi="96"
   inkscape:export-xdpi="96"
   inkscape:export-filename="/Users/sshrestha/Desktop/webtutor-logo-3.png"
   inkscape:version="1.0 (4035a4f, 2020-05-01)"
   sodipodi:docname="webtutor-logo.svg"
   viewBox="0 0 92.160004 71.68"
   height="71.68"
   width="92.160004"
   id="svg409"
   version="1.1">
  <metadata
     id="metadata415">
    <rdf:RDF>
      <cc:Work
         rdf:about="">
        <dc:format>image/svg+xml</dc:format>
        <dc:type
           rdf:resource="http://purl.org/dc/dcmitype/StillImage" />
        <dc:title></dc:title>
      </cc:Work>
    </rdf:RDF>
  </metadata>
  <defs
     id="defs413" />
  <sodipodi:namedview
     inkscape:pagecheckerboard="true"
     inkscape:current-layer="g417"
     inkscape:window-maximized="1"
     inkscape:window-y="23"
     inkscape:window-x="0"
     inkscape:cy="27.292448"
     inkscape:cx="171.68491"
     inkscape:zoom="2.2587842"
     showgrid="false"
     id="namedview411"
     inkscape:window-height="855"
     inkscape:window-width="1440"
     inkscape:pageshadow="2"
     inkscape:pageopacity="0"
     guidetolerance="10"
     gridtolerance="10"
     objecttolerance="10"
     borderopacity="1"
     bordercolor="#666666"
     pagecolor="#ffffff" />
  <g
     style="display:inline"
     id="g417"
     inkscape:label="Image"
     inkscape:groupmode="layer">
    <g
       style="display:inline"
       id="g429">
      <path
         id="path443"
         d="M 0,35.84 V 0 H 46.080002 92.160004 V 35.84 71.68 H 46.080002 0 Z"
         style="display:none;fill:#b9b9b9;fill-opacity:1;stroke-width:1" />
      <path
         id="path439"
         d="M 37.342643,68.851322 C 24.69326,65.78304 15.544211,55.478716 14.851971,43.520687 c -0.338854,-5.853499 0.545274,-10.166291 2.785346,-13.586965 1.35937,-2.07581 1.562684,-3.123027 1.562684,-8.048973 V 16.222054 L 11.04,14.338467 C 5.5080385,13.061514 2.8800001,12.174444 2.8800001,11.584133 c 0,-0.604312 6.2531837,-2.5098015 20.4363929,-6.2274394 C 34.55641,2.4105121 44.20441,-0.00739753 44.756394,-0.01643895 46.284406,-0.04146758 85.992676,10.3794 86.688004,10.987912 c 0.37808,0.330876 0.317574,0.822512 -0.16,1.300088 -1.015335,1.015336 -1.072858,17.871146 -0.06442,18.879576 0.387162,0.387166 0.506368,1.324919 0.265063,2.085209 -0.684691,2.157257 -3.781997,1.566425 -4.051149,-0.772785 -0.111379,-0.968 0.104621,-1.76 0.48,-1.76 0.449638,0 0.682509,-2.947904 0.682509,-8.64 0,-5.978855 -0.222004,-8.64 -0.720775,-8.64 -0.396429,0 -3.276429,0.599996 -6.4,1.333323 l -5.679226,1.333323 v 5.802887 c 0,5.034959 0.232909,6.277151 1.76,9.386677 1.596135,3.250119 1.76,4.239254 1.76,10.62379 0,6.316934 -0.178067,7.420019 -1.733741,10.739982 -2.229248,4.75744 -7.860614,10.646999 -12.590983,13.168261 -6.82436,3.637344 -15.588786,4.794727 -22.892636,3.023079 z M 55.808458,64.1848 C 65.591574,59.60395 70.771286,50.26426 69.02543,40.352895 67.931235,34.141048 64.536048,30.342588 58.623338,28.715277 55.164423,27.763305 49.885266,28.826422 46.948581,31.06634 l -2.178902,1.661929 -1.867409,-1.571321 c -2.361282,-1.986888 -7.50626,-3.2507 -10.899652,-2.67739 -3.586404,0.605919 -8.279423,3.950806 -9.87804,7.040442 -1.069597,2.067202 -1.322753,3.730396 -1.315102,8.64 0.0084,5.39194 0.21006,6.462732 1.781923,9.461987 4.511409,8.608165 12.623187,13.07137 23.168603,12.747658 4.898304,-0.150362 6.401553,-0.477216 10.048456,-2.184845 z M 44.604504,61.44 C 44.04172,60.042975 41.600002,49.339462 41.600002,48.269468 c 0,-0.673912 0.896994,-0.909468 3.46324,-0.909468 h 3.46324 l -0.935098,4 c -0.514304,2.2 -1.309735,5.584 -1.767624,7.52 -0.488686,2.066212 -0.992248,3.123512 -1.219256,2.56 z M 29.851233,50.561924 c -5.127796,-1.592673 -7.472131,-7.169545 -5.249745,-12.488466 1.977665,-4.733217 9.180109,-6.442854 13.132397,-3.117224 3.806199,3.202706 4.748832,6.830135 2.827213,10.879648 -1.864195,3.928498 -6.579036,6.00906 -10.709865,4.726042 z m 5.047593,-4.257707 c 1.631143,-0.625928 2.851005,-4.007641 2.129856,-5.904406 -1.808507,-4.756733 -8.268532,-4.134082 -9.236773,0.890289 -0.727972,3.777568 3.167397,6.525853 7.106917,5.014117 z m 18.353561,3.620655 c -2.174145,-0.986745 -3.021308,-1.865745 -4.058933,-4.21147 -1.764038,-3.987899 -1.203319,-6.814123 1.984338,-10.00178 2.150598,-2.150598 2.791658,-2.431346 5.546916,-2.42923 5.97824,0.0046 9.598207,3.899302 9.038476,9.724479 -0.337888,3.516492 -2.106631,5.902684 -5.422625,7.315612 -2.710857,1.15508 -3.801898,1.093878 -7.088172,-0.397611 z m 7.501164,-4.891182 c 1.759597,-2.236964 1.675345,-4.422978 -0.244457,-6.342781 -1.919803,-1.919802 -4.105818,-2.004054 -6.342782,-0.244458 -2.112982,1.662073 -2.312012,5.087847 -0.40631,6.993549 1.905703,1.905702 5.331477,1.706673 6.993549,-0.40631 z m 18.766452,-2.786676 c -1.144,-0.69751 -2.08,-1.569472 -2.08,-1.937693 0,-1.203309 1.829044,-1.40561 3.312724,-0.366403 1.856608,1.30042 5.163341,1.300205 7.678624,-4.98e-4 1.723763,-0.891394 2.083469,-0.90189 2.900717,-0.08464 0.817248,0.817246 0.659123,1.102157 -1.275104,2.297579 -2.890944,1.786699 -7.688448,1.828432 -10.536961,0.09166 z m 2.625492,-2.562732 c -1.490144,-0.601236 -2.479008,-1.804098 -1.932461,-2.350647 0.187667,-0.187663 1.332218,-0.01414 2.54345,0.3856 1.673932,0.552448 2.609587,0.541207 3.900243,-0.04685 1.279584,-0.583019 1.879347,-0.592311 2.433952,-0.03771 0.554598,0.554602 0.161126,0.976129 -1.596806,1.710639 -2.610394,1.090692 -3.366503,1.138613 -5.348378,0.338971 z m 0.231635,-2.96049 c -0.998957,-0.998957 -0.339162,-1.396349 2.109421,-1.270495 1.411603,0.07256 2.635603,0.405244 2.72,0.73931 0.181421,0.718086 -4.164512,1.196093 -4.829421,0.531185 z"
         style="display:none;fill:#008080;fill-opacity:1;stroke-width:1" />
      <path
         id="path437"
         d="M 38.436121,69.104307 C 36.871988,68.774387 33.479252,67.500998 30.896709,66.274554 24.896308,63.424975 20.168777,58.765839 17.238638,52.814081 15.176343,48.625105 15.040001,47.949716 15.040001,41.922874 c 0,-5.955232 0.152167,-6.734549 2.08,-10.652619 1.853686,-3.767377 2.08,-4.821283 2.08,-9.686224 v -5.458894 l -7.52,-1.704092 C 7.5440003,13.483794 3.8000002,12.600677 3.3600001,12.458563 1.8969007,11.985999 2.5332173,10.947512 4.6400002,10.369565 5.7840003,10.055735 15.294825,7.5527392 25.775167,4.8073526 L 44.830333,-0.18425978 65.333654,5.1738852 c 11.276826,2.9469801 20.827483,5.5584878 21.223681,5.8033518 0.533555,0.329755 0.533011,0.670949 -0.0019,1.315711 -0.767539,0.924829 -1.436007,18.430047 -0.703712,18.42813 0.841485,-0.0022 1.18512,2.111813 0.481152,2.960041 -1.837613,2.214185 -4.760397,0.04745 -3.233683,-2.397213 0.462419,-0.740732 0.740832,-4.315788 0.740832,-9.515222 0,-6.780336 -0.169485,-8.328684 -0.911661,-8.328684 -0.501415,0 -3.525415,0.601801 -6.72,1.337336 l -5.80834,1.337336 v 5.674242 c 0,4.932441 0.200595,5.969835 1.5344,7.935309 2.172192,3.200898 3.150567,7.976062 2.816519,13.746563 C 74.1105,54.53404 66.609808,63.946664 55.308358,67.869293 50.966263,69.376397 42.621825,69.987194 38.436141,69.104307 Z m 17.32944,-4.641574 c 5.34911,-2.617074 9.152714,-6.290879 11.54568,-11.151684 4.832506,-9.816216 1.519834,-21.131717 -7.074088,-24.163829 -4.777088,-1.685454 -10.070389,-0.959089 -13.308531,1.826244 l -1.713489,1.47388 -2.927565,-1.81648 c -5.906917,-3.665091 -12.84271,-3.021289 -17.691759,1.642204 -3.081059,2.963158 -4.243808,6.24968 -4.243808,11.995169 0,9.373595 6.062305,17.51772 15.698463,21.089382 5.147314,1.907859 14.890416,1.465613 19.715097,-0.894886 z M 44.69785,61.12 C 44.061328,60.059039 41.450885,47.935783 41.786655,47.600013 41.958153,47.428516 43.506882,47.376355 45.228276,47.4841 l 3.129806,0.1959 -1.638132,7.04 c -0.900974,3.872 -1.810919,6.752 -2.0221,6.4 z M 29.760001,50.222877 c -3.131661,-1.089296 -5.245243,-3.413907 -5.80191,-6.381194 -0.582822,-3.106705 0.06363,-5.137775 2.461951,-7.735134 3.298482,-3.572227 8.058859,-3.787727 11.919074,-0.53957 5.575025,4.691073 3.005436,13.522154 -4.419115,15.187473 -0.88,0.197384 -2.752,-0.04183 -4.16,-0.531575 z M 35.98511,45.6 c 1.619512,-1.844298 1.912481,-3.797495 0.871538,-5.810458 -1.621491,-3.135617 -5.219707,-3.644663 -7.765738,-1.098633 -1.919802,1.919803 -2.004054,4.105817 -0.244458,6.342781 1.614608,2.052641 5.558732,2.365528 7.138658,0.56631 z m 18.801658,4.942004 C 47.162961,48.233451 46.183781,37.82686 53.24671,34.174477 c 5.537744,-2.863679 12.658323,1.417583 12.669075,7.617305 0.0103,5.950323 -5.65785,10.406939 -11.129017,8.750222 z M 60.800003,45.44 c 1.779092,-1.779092 1.648461,-4.80972 -0.290909,-6.749091 -1.939371,-1.93937 -4.97,-2.070001 -6.749092,-0.290909 -1.586128,1.586129 -1.707225,5.507134 -0.220807,7.149606 1.471299,1.625768 5.587571,1.56363 7.260808,-0.109606 z m 18.628871,-3.248405 c -1.960851,-1.195425 -2.075072,-1.41968 -1.179309,-2.315441 0.895757,-0.89576 1.135328,-0.891303 2.47353,0.04601 1.848665,1.294855 5.421312,1.330148 7.82352,0.07729 3.34976,-1.747055 4.148659,0.262784 0.893389,2.247561 -2.770925,1.689465 -7.18912,1.665006 -10.01113,-0.05542 z m 2.53927,-2.888306 c -1.493619,-0.63753 -1.983366,-1.144067 -1.537363,-1.590067 0.446003,-0.446002 1.186029,-0.41232 2.323021,0.105728 1.304787,0.5945 2.09785,0.582399 3.637888,-0.05551 2.219783,-0.919467 3.284845,-0.416671 1.890221,0.892337 -1.48864,1.397247 -3.962803,1.650984 -6.313767,0.647507 z m 0.294151,-2.787219 c -0.502701,-0.813392 -0.602394,-0.773445 2.396921,-0.960487 1.516506,-0.09457 2.333953,0.109453 2.190714,0.546775 -0.305235,0.931917 -4.058195,1.270359 -4.587635,0.413712 z"
         style="display:none;fill:#767676;fill-opacity:1;stroke-width:1" />
      <path
         id="path435"
         d="M 37.928101,68.79097 C 30.128067,67.096346 22.176352,61.494611 18.383304,55.022264 14.134148,47.771629 13.675946,38.052558 17.255972,31.110102 c 1.732112,-3.358944 1.944029,-4.383289 1.944029,-9.396871 0,-4.811613 -0.162291,-5.672902 -1.12,-5.943928 -0.616,-0.174324 -4,-0.952852 -7.520001,-1.730062 C 3.8559054,12.558989 2.2811876,11.843399 3.7416172,10.940804 4.2096216,10.651562 13.711215,8.0552134 24.856268,5.1711419 L 45.120002,-0.07262452 65.837494,5.3745111 c 11.394618,2.9959247 20.896219,5.6258659 21.11467,5.8443139 0.218445,0.218449 -0.104423,0.677889 -0.717491,1.020979 -0.973389,0.544736 -1.114669,1.71484 -1.114669,9.231998 0,5.312132 -0.245056,8.608198 -0.64,8.608198 -0.394759,0 -0.64,-3.279508 -0.64,-8.558523 v -8.558523 l -5.280001,1.199498 c -2.904,0.659723 -5.928,1.348546 -6.72,1.530716 -1.363238,0.313562 -1.44,0.640876 -1.44,6.140228 0,4.687448 0.235494,6.139732 1.219719,7.521947 2.173472,3.052363 3.439859,8.783584 3.128659,14.15928 C 74.040669,55.739939 64.497225,66.037472 51.278082,68.839456 46.114249,69.934003 43.139551,69.9232 37.928101,68.790944 Z M 48.845294,66.582477 C 57.204621,65.213421 64.325942,60.035672 67.595043,52.94996 69.151446,49.576488 69.43103,48.16891 69.404521,43.84 69.369833,38.176092 68.169417,35.016237 64.858614,31.873951 60.024148,27.285548 51.243091,26.94666 46.578066,31.168451 45.509909,32.135119 45.153846,32.066029 41.504745,30.184042 33.477832,26.044241 25.00214,28.717508 21.543179,36.48 c -1.949084,4.37407 -1.791121,11.414921 0.361588,16.117057 3.243647,7.085058 9.364518,11.909433 17.295974,13.632409 5.006951,1.08768 5.130997,1.092217 9.644553,0.353011 z M 44.571763,60.8 c -0.36219,-0.915677 -2.971761,-12.430695 -2.971761,-13.113224 0,-0.179727 1.44,-0.326776 3.2,-0.326776 2.140787,0 3.195374,0.264803 3.186024,0.8 -0.03824,2.188583 -3.085701,13.470658 -3.414263,12.64 z M 27.788779,49.353166 c -5.449943,-3.323368 -5.14381,-11.339839 0.565996,-14.821328 8.955095,-5.460267 17.616864,7.093361 9.694031,14.0497 -1.8385,1.614225 -2.808912,1.978022 -5.271074,1.97607 -1.822437,-0.0015 -3.798513,-0.478512 -4.988953,-1.204442 z m 8.590339,-4.361677 C 39.195019,41.835219 36.748859,37.12 32.295551,37.12 c -3.652912,0 -6.20427,5.004532 -3.97555,7.79811 2.263801,2.83755 5.566205,2.867618 8.059117,0.07338 z m 14.74559,3.083805 c -2.206847,-2.206847 -2.484438,-2.833082 -2.482314,-5.6 0.0064,-8.326663 8.770575,-12.240994 14.524511,-6.487058 5.735434,5.735434 1.832106,14.563018 -6.442197,14.569372 -2.766918,0.0021 -3.393152,-0.275467 -5.6,-2.482314 z m 8.349521,-1.651624 c 2.986558,-1.544409 3.57155,-5.31315 1.214213,-7.822421 -2.474796,-2.634299 -6.762928,-1.771022 -8.178503,1.646477 -0.975736,2.355635 0.113873,5.061979 2.530063,6.28411 2.031496,1.027549 2.248221,1.022263 4.434227,-0.108166 z M 80.67448,42.813622 c -2.588083,-1.033637 -3.351942,-1.900933 -2.53799,-2.881682 0.593625,-0.715276 1.016057,-0.701132 2.536109,0.08492 2.378829,1.230142 6.350394,1.203848 8.146125,-0.05393 1.403725,-0.983207 2.70128,-0.789024 2.70128,0.404255 0,0.3364 -0.936,1.182326 -2.08,1.879837 -2.228288,1.358615 -6.148032,1.611989 -8.765524,0.566608 z m 0.310893,-3.99593 c -1.664134,-1.216845 -0.308192,-1.814045 2.075731,-0.914216 1.516116,0.572271 2.365863,0.56212 3.696493,-0.04415 2.111373,-0.962005 2.987776,-0.336427 1.279079,0.913005 -1.571226,1.148907 -5.507488,1.17423 -7.051303,0.04536 z m 1.574631,-2.3221 c -0.528,-0.349796 -0.816,-0.657401 -0.64,-0.683567 2.863654,-0.42575 5.121721,-0.295113 4.931533,0.285306 -0.307117,0.937277 -3.088327,1.195377 -4.291533,0.398261 z m 0.248665,-2.850704 c -0.637229,-1.66059 0.255923,-3.033079 1.828474,-2.809776 1.057747,0.150202 1.442861,0.631942 1.442861,1.804888 0,1.172946 -0.385114,1.654686 -1.442861,1.804888 -0.865459,0.122896 -1.597178,-0.197248 -1.828474,-0.8 z"
         style="display:none;fill:#606060;fill-opacity:1;stroke-width:1" />
      <path
         id="path433"
         d="M 40.168569,69.099002 C 29.627302,67.324026 21.785622,61.712197 17.552608,52.914091 13.973416,45.47492 14.006155,37.220549 17.641975,30.382513 c 1.314504,-2.472242 1.558026,-3.820545 1.558026,-8.626296 V 16.060165 L 16.994555,15.451212 C 15.78156,15.116288 12.502754,14.348263 9.7083198,13.74449 4.4763525,12.614056 2.6275936,11.879073 3.307038,11.199629 3.5215209,10.985146 12.945972,8.3705203 24.250263,5.3893489 L 44.80352,-0.03096222 65.327753,5.3638437 c 11.288327,2.9671432 20.70034,5.5709093 20.915579,5.7861483 0.215232,0.215237 0.05056,0.732141 -0.365997,1.148675 -0.507187,0.507188 -0.757331,3.568826 -0.757331,9.269333 0,5.248 -0.245415,8.512 -0.64,8.512 -0.39522,0 -0.64,-3.321043 -0.64,-8.683128 0,-7.974459 -0.09141,-8.65496 -1.12,-8.337996 -0.616,0.189823 -3.136001,0.79866 -5.600001,1.352971 -2.464,0.554311 -4.984,1.157817 -5.6,1.341124 -0.956474,0.284623 -1.12,1.154869 -1.12,5.96026 0,5.023431 0.21017,6.034489 1.959482,9.426331 1.481325,2.872238 2.049011,4.983184 2.326387,8.650714 1.083456,14.325764 -9.859162,27.096418 -25.105726,29.299804 -4.992035,0.721434 -5.179067,0.721613 -9.411577,0.0089 z m 9.879932,-2.618605 c 7.441108,-1.578842 14.483054,-6.885436 17.623713,-13.280693 1.51072,-3.076245 1.767789,-4.393257 1.767789,-9.056788 0,-7.072979 -1.760192,-10.877995 -6.342773,-13.711185 -4.663459,-2.883196 -9.721719,-3.029828 -14.653654,-0.42479 l -3.716427,1.963009 -2.58145,-1.708323 c -5.424992,-3.59009 -13.660717,-2.501689 -18.079439,2.389307 -7.782203,8.613968 -3.734813,24.616472 7.816129,30.903282 6.050744,3.293227 11.954365,4.244178 18.166112,2.926181 z M 44.578212,60.16 c -0.367462,-0.899612 -2.97821,-11.861514 -2.97821,-12.504784 0,-0.162369 1.44,-0.295216 3.2,-0.295216 2.14884,0 3.190449,0.26279 3.170926,0.8 -0.08359,2.300128 -3.057812,12.819905 -3.392716,12 z M 27.310728,48.651368 c -4.372446,-3.839059 -4.534419,-9.580128 -0.369167,-13.084957 5.842088,-4.915793 14.018441,-0.962691 14.018441,6.777633 0,2.638169 -0.326605,3.471141 -2.134555,5.443956 -1.851582,2.020425 -2.601543,2.367928 -5.65718,2.621326 -3.248661,0.269404 -3.704217,0.132683 -5.857539,-1.757958 z m 8.578504,-3.162137 C 38.097536,43.280927 38.271661,41.143089 36.43355,38.80631 35.437848,37.540479 34.530529,37.12 32.794799,37.12 c -5.637041,0 -7.348848,6.791316 -2.394798,9.500972 2.088187,1.142149 3.508089,0.849401 5.489231,-1.131741 z m 16.781842,3.816679 c -5.639345,-3.43851 -5.272091,-12.156363 0.630092,-14.957132 2.959432,-1.404343 5.434175,-1.347315 7.944063,0.18306 7.672444,4.678187 4.864905,16.023377 -3.965227,16.023377 -1.41261,0 -3.478327,-0.559937 -4.608928,-1.249305 z m 8.288929,-3.938739 c 1.521709,-1.83281 1.440556,-5.366615 -0.16,-6.967171 -1.600557,-1.600556 -5.134362,-1.681709 -6.967171,-0.16 -0.741936,0.616 -1.527534,2.044461 -1.745774,3.174359 -0.334263,1.730591 -0.07837,2.372792 1.623714,4.074872 1.702079,1.702079 2.34428,1.957977 4.074871,1.623713 1.129898,-0.218239 2.55836,-1.003837 3.17436,-1.745773 z m 19.521844,-2.735428 c -3.128077,-1.697199 -3.153639,-1.725888 -2.374228,-2.665018 0.615322,-0.741418 0.974759,-0.718796 2.291936,0.144251 2.005594,1.314116 6.155303,1.314116 8.160897,0 1.330061,-0.871487 1.672346,-0.890815 2.303686,-0.13009 1.912103,2.303943 -6.882886,4.549522 -10.382291,2.650857 z m 0.503526,-3.814051 c -0.878746,-0.642554 -0.977254,-0.987164 -0.38656,-1.352235 0.435994,-0.26946 1.113229,-0.169422 1.504954,0.222307 0.885997,0.885995 3.349997,0.921165 4.939469,0.0705 0.753101,-0.403048 1.339219,-0.414991 1.575853,-0.03211 1.05888,1.713308 -5.500679,2.65125 -7.633716,1.091533 z m 1.574631,-2.3221 c -1.046061,-0.693005 -0.928538,-0.743818 1.92,-0.830137 1.056,-0.032 1.928953,0.210181 1.939897,0.538181 0.02816,0.844683 -2.712653,1.051995 -3.859897,0.291956 z m 0.669542,-2.859993 c -1.161805,-1.399892 -0.333562,-3.047732 1.407597,-2.800487 1.055328,0.149858 1.442861,0.632272 1.442861,1.796123 0,1.867341 -1.651348,2.449198 -2.850458,1.004364 z"
         style="display:none;fill:#494949;fill-opacity:1;stroke-width:1" />
      <path
         id="path431"
         d="M 33.40984,67.600403 C 23.150575,63.978782 16.108378,55.954196 14.218725,45.732118 13.211657,40.28439 14.36177,33.638893 16.950395,29.948179 c 1.028832,-1.466851 1.186602,-2.687003 1.031164,-7.974772 L 17.798044,15.730458 10.22421,13.998062 C 2.8761318,12.317304 1.5643086,11.860401 2.2159093,11.208801 2.387069,11.037641 11.813496,8.4637677 23.163526,5.4890815 L 43.799943,0.08056165 64.33018,5.4648024 c 11.291636,2.9613326 20.705211,5.5746346 20.919054,5.8073386 0.21385,0.232703 0.0288,0.551668 -0.411187,0.708811 -0.587987,0.209996 -0.8,2.646096 -0.8,9.192381 0,5.511111 -0.243994,8.906667 -0.64,8.906667 -0.395104,0 -0.64,-3.310731 -0.64,-8.652193 0,-8.645243 -0.0013,-8.651925 -1.44,-8.317177 -0.792,0.184259 -3.744001,0.866211 -6.560001,1.515448 l -5.12,1.180432 -0.184608,5.901388 c -0.15975,5.106705 -5.5e-4,6.199193 1.182195,8.11292 0.751744,1.216343 1.767399,3.716253 2.257012,5.555357 C 76.533477,49.05195 67.94675,63.37055 53.410631,67.862957 47.524244,69.682157 38.989617,69.570118 33.40984,67.600403 Z M 53.192248,65.39376 C 57.54925,63.729139 61.530893,60.65844 64.456766,56.706407 70.778654,48.167305 69.772939,35.624337 62.347943,30.405856 59.838803,28.642367 59.163342,28.48 54.336176,28.48 c -4.712779,0 -5.56109,0.19157 -8.002384,1.807142 -2.477138,1.639293 -2.831637,1.715865 -3.816685,0.824409 C 40.564469,29.344437 36.787538,28.16 33.105211,28.16 c -9.09698,0 -15.195602,7.707183 -14.134193,17.862199 1.000991,9.576966 8.053415,17.398807 18.347027,20.348681 3.887664,1.114099 11.651457,0.636205 15.874203,-0.97712 z M 42.158794,54.56 c -0.664237,-3.08 -1.335952,-5.96 -1.492699,-6.4 -0.204581,-0.574273 0.658297,-0.8 3.058121,-0.8 3.136191,0 3.320171,0.08774 2.972407,1.417597 -0.203891,0.779679 -0.85514,3.659679 -1.447222,6.4 C 44.65732,57.917919 43.991451,60.16 43.769694,60.16 c -0.221759,0 -0.946663,-2.52 -1.6109,-5.6 z m -14.12075,-4.610578 c -5.190843,-2.147075 -6.759668,-10.170971 -2.727191,-13.948474 2.968694,-2.780982 6.341712,-3.343549 9.906027,-1.65217 7.931905,3.763934 4.986867,16.339202 -3.787053,16.170655 -1.161481,-0.02231 -2.687783,-0.278817 -3.391783,-0.570011 z m 6.034227,-3.525752 c 5.556441,-2.873347 1.51785,-11.282675 -4.42379,-9.211408 -3.548205,1.236911 -4.419813,5.796543 -1.639528,8.576829 1.797181,1.79718 3.475437,1.972825 6.063318,0.634579 z m 17.516846,2.88224 c -5.774572,-3.520963 -5.224338,-12.160739 0.948364,-14.891219 3.684717,-1.629926 6.709533,-1.093723 9.484565,1.681309 2.851302,2.851302 3.353805,5.908917 1.574989,9.583459 -2.2385,4.624123 -7.677647,6.266773 -12.007918,3.626451 z m 7.645256,-3.211508 c 0.884921,-0.696079 1.743174,-1.967759 1.907229,-2.825955 1.069709,-5.595823 -6.111919,-8.762255 -9.358972,-4.126439 -1.52495,2.177171 -1.248235,4.252803 0.846185,6.347223 2.186509,2.186509 4.343937,2.384163 6.605558,0.605171 z m 20.560506,-3.461381 c -2.190516,-0.991411 -3.067821,-1.996783 -2.518305,-2.885917 0.19474,-0.315092 1.424628,-0.02709 2.733095,0.64 2.965978,1.512143 3.808467,1.51332 6.758221,0.0094 1.927238,-0.982559 2.488544,-1.049153 3.058157,-0.362817 1.82921,2.204065 -6.268352,4.302312 -10.031168,2.599286 z m 0.883168,-3.644284 c -1.840961,-1.07226 -1.267137,-1.813088 0.8,-1.032832 1.428505,0.539202 2.410784,0.539469 3.837235,10e-4 2.176262,-0.821447 3.25856,0.02563 1.342765,1.05094 -1.578362,0.844713 -4.512967,0.835315 -5.98,-0.01915 z m 1.226668,-2.295404 c -0.920716,-0.920717 -0.327897,-1.224777 1.884384,-0.966505 1.604935,0.187367 2.044916,0.438426 1.440001,0.821687 -1.044589,0.661833 -2.733786,0.735418 -3.324385,0.144818 z m 0.242874,-3.057734 c -1.161805,-1.399892 -0.333562,-3.047732 1.407597,-2.800487 1.055328,0.149858 1.442861,0.632272 1.442861,1.796123 0,1.867341 -1.651348,2.449198 -2.850458,1.004364 z"
         style="display:inline;fill:#ffffff;fill-opacity:1;stroke-width:1" />
    </g>
    <text
       id="text531"
       y="49.774555"
       x="99.54911"
       style="font-style:normal;font-variant:normal;font-weight:normal;font-stretch:normal;font-size:40px;line-height:1.25;font-family:'.Arial Hebrew Desk Interface';-inkscape-font-specification:'.Arial Hebrew Desk Interface';display:inline;fill:#000000;fill-opacity:1;stroke:none"
       xml:space="preserve"><tspan
         y="49.774555"
         x="99.54911"
         id="tspan529"
         sodipodi:role="line" /></text>
    <text
       id="text535"
       y="43.513603"
       x="108.00139"
       style="font-style:normal;font-variant:normal;font-weight:normal;font-stretch:normal;font-size:40px;line-height:1.25;font-family:'.Aqua Kana';-inkscape-font-specification:'.Aqua Kana';display:inline"
       xml:space="preserve"><tspan
         y="43.513603"
         x="108.00139"
         id="tspan533"
         sodipodi:role="line" /></text>
  </g>
</svg>
