<?xml version="1.0" encoding="UTF-8" standalone="no"?>
<svg
   xmlns:dc="http://purl.org/dc/elements/1.1/"
   xmlns:cc="http://creativecommons.org/ns#"
   xmlns:rdf="http://www.w3.org/1999/02/22-rdf-syntax-ns#"
   xmlns:svg="http://www.w3.org/2000/svg"
   xmlns="http://www.w3.org/2000/svg"
   xmlns:sodipodi="http://sodipodi.sourceforge.net/DTD/sodipodi-0.dtd"
   xmlns:inkscape="http://www.inkscape.org/namespaces/inkscape"
   aria-hidden="true"
   viewBox="0 0 21.578476 16.309092"
   version="1.1"
   data-view-component="true"
   height="16.309093"
   width="21.578476"
   class="octicon octicon-project"
   id="svg835"
   sodipodi:docname="logo-light-sm.svg"
   inkscape:version="1.0.1 (c497b03c, 2020-09-10)"
   inkscape:export-filename="/Users/sshrestha/Desktop/poll1.png"
   inkscape:export-xdpi="447.35999"
   inkscape:export-ydpi="447.35999">
  <metadata
     id="metadata841">
    <rdf:RDF>
      <cc:Work
         rdf:about="">
        <dc:format>image/svg+xml</dc:format>
        <dc:type
           rdf:resource="http://purl.org/dc/dcmitype/StillImage" />
        <dc:title></dc:title>
      </cc:Work>
    </rdf:RDF>
  </metadata>
  <defs
     id="defs839" />
  <sodipodi:namedview
     pagecolor="#ffffff"
     bordercolor="#666666"
     borderopacity="1"
     objecttolerance="10"
     gridtolerance="10"
     guidetolerance="10"
     inkscape:pageopacity="0"
     inkscape:pageshadow="2"
     inkscape:window-width="1536"
     inkscape:window-height="915"
     id="namedview837"
     showgrid="false"
     inkscape:zoom="15.733126"
     inkscape:cx="5.6705695"
     inkscape:cy="5.398794"
     inkscape:window-x="0"
     inkscape:window-y="23"
     inkscape:window-maximized="0"
     inkscape:current-layer="g18"
     fit-margin-top="0"
     fit-margin-left="0"
     fit-margin-right="0"
     fit-margin-bottom="0"
     inkscape:document-rotation="0"
     lock-margins="true"
     inkscape:snap-others="true" />
  <g
     id="g18"
     transform="scale(1.4385651)"
     style="stroke-width:0.695137">
    <g
       id="g19"
       style="fill:#e6e6e6">
      <path
         fill-rule="evenodd"
         d="M 11.25,9 C 10.835786,9 10.5,8.664214 10.5,8.25 V 4.3581611 0.75 c 0,-1 1.5,-1 1.5,0 v 7.5 C 12,8.664214 11.664214,9 11.25,9 Z M 3,8.25 c 0,1 1.5,1 1.5,0 V 2.75 C 4.5,1.7500004 3,1.7500004 3,2.75 Z M 7.5,9 C 7.0857864,9 6.75,8.664214 6.75,8.25 v -3.5 c 0,-0.9999996 1.5,-0.9999996 1.5,0 v 3.5 C 8.25,8.664214 7.9142136,9 7.5,9 Z"
         id="path833"
         sodipodi:nodetypes="sscsssssssssssssss"
         style="stroke-width:0.483216;fill:#e6e6e6" />
      <path
         fill-rule="evenodd"
         d="m 0,10.587056 c 0,-0.414214 0.335786,-0.75 0.75,-0.75 H 4.641839 14.25 c 1,0 1,1.5 0,1.5 H 0.75 c -0.414214,0 -0.75,-0.335786 -0.75,-0.75 z"
         id="path833-4"
         sodipodi:nodetypes="sscssss"
         style="stroke-width:0.483216;fill:#e6e6e6" />
    </g>
  </g>
</svg>
