<?xml version="1.0" standalone="no"?>
<!DOCTYPE svg PUBLIC "-//W3C//DTD SVG 20010904//EN"
 "http://www.w3.org/TR/2001/REC-SVG-20010904/DTD/svg10.dtd">
<svg version="1.0" xmlns="http://www.w3.org/2000/svg"
 width="700.000000pt" height="700.000000pt" viewBox="0 0 700.000000 700.000000"
 preserveAspectRatio="xMidYMid meet">
<metadata>
Created by potrace 1.14, written by Peter Selinger 2001-2017
</metadata>
<g transform="translate(0.000000,700.000000) scale(0.100000,-0.100000)"
fill="#000000" stroke="none">
<path d="M790 6993 c-47 -8 -175 -44 -205 -57 -16 -8 -47 -21 -68 -30 -42 -17
-138 -78 -181 -116 -177 -154 -277 -323 -321 -545 -12 -58 -14 -384 -14 -1945
0 -1098 4 -1894 9 -1920 24 -118 30 -137 65 -220 106 -253 343 -458 610 -528
110 -29 148 -31 493 -32 l303 0 -6 -47 c-9 -67 -53 -353 -60 -383 -3 -14 -10
-46 -15 -71 -14 -74 -30 -136 -73 -289 -50 -178 -55 -290 -18 -405 53 -171
197 -318 369 -377 55 -18 87 -22 182 -22 173 1 222 21 465 193 230 163 463
352 685 556 86 79 440 433 511 510 91 101 199 222 250 282 l44 52 1160 1 c638
1 1184 4 1213 6 76 7 215 49 295 89 238 119 406 321 486 584 l26 86 2 1910 c2
1659 1 1919 -12 1975 -48 208 -128 356 -269 493 -108 106 -243 181 -411 231
l-70 21 -2710 1 c-1490 1 -2721 -1 -2735 -3z m5424 -612 c28 -13 74 -48 103
-77 42 -44 57 -68 73 -122 20 -66 20 -82 17 -1877 -1 -995 -6 -1825 -9 -1842
-27 -127 -131 -236 -251 -263 -30 -6 -478 -10 -1289 -10 l-1243 -1 -62 -30
c-55 -26 -76 -46 -165 -152 -195 -234 -300 -347 -528 -576 -216 -217 -382
-365 -651 -583 -69 -56 -300 -220 -304 -216 -3 2 14 75 35 162 22 87 42 172
45 189 5 28 11 62 30 157 3 14 7 39 9 55 3 17 9 59 15 95 6 36 13 88 16 115 4
28 8 61 10 75 2 14 6 54 10 90 3 36 8 83 10 105 3 22 7 95 11 161 6 117 5 124
-19 178 -31 67 -87 124 -154 157 l-48 23 -490 2 c-269 1 -507 5 -528 8 -90 15
-189 93 -234 185 l-28 56 -2 1840 c-2 1783 -1 1842 17 1900 32 100 133 194
235 218 11 3 1213 4 2670 3 l2650 -1 49 -24z"/>
<path d="M4767 5673 c-1 -1 -742 -3 -1647 -4 -1767 -3 -1688 -1 -1733 -53 -34
-38 -39 -69 -39 -228 0 -173 7 -198 65 -242 l28 -21 2027 0 c1115 0 2086 2
2159 5 146 6 169 14 207 80 17 29 19 52 19 192 0 167 -6 193 -48 231 -44 39
-58 40 -553 41 -266 1 -484 0 -485 -1z"/>
<path d="M1479 4569 c-51 -8 -97 -39 -115 -78 -14 -28 -17 -66 -17 -192 0
-144 2 -159 23 -197 45 -79 -35 -74 1154 -74 1010 0 1057 1 1087 18 18 11 41
32 53 47 20 26 21 41 21 207 0 199 -4 213 -75 254 -32 19 -64 20 -1065 20
-568 1 -1047 -1 -1066 -5z"/>
<path d="M1497 3479 c-65 -7 -102 -29 -131 -78 -15 -27 -18 -54 -19 -174 -1
-169 5 -203 39 -240 52 -57 -155 -50 2009 -62 666 -3 1260 -7 1322 -7 97 -1
116 2 146 21 68 42 72 56 72 251 0 167 -1 176 -23 208 -13 18 -38 40 -55 49
-36 18 69 17 -2086 27 -662 4 -1206 8 -1210 9 -3 2 -32 0 -64 -4z"/>
</g>
</svg>
