<?xml version="1.0" standalone="no"?>
<!DOCTYPE svg PUBLIC "-//W3C//DTD SVG 20010904//EN"
 "http://www.w3.org/TR/2001/REC-SVG-20010904/DTD/svg10.dtd">
<svg version="1.0" xmlns="http://www.w3.org/2000/svg"
 width="704.000000pt" height="704.000000pt" viewBox="0 0 704.000000 704.000000"
 preserveAspectRatio="xMidYMid meet">
<metadata>
Created by potrace 1.14, written by Peter Selinger 2001-2017
</metadata>
<g transform="translate(0.000000,704.000000) scale(0.100000,-0.100000)"
fill="#000000" stroke="none">
<path d="M5208 6174 c-3 -3 -18 -7 -34 -10 -42 -8 -119 -53 -152 -89 -51 -56
-68 -89 -88 -170 -3 -11 -5 -832 -5 -1825 0 -1304 3 -1819 11 -1855 35 -157
185 -271 350 -266 41 1 81 6 88 11 1 2 5 3 10 4 60 14 173 103 187 147 4 10
10 19 15 19 5 0 12 15 15 32 4 18 10 37 13 43 3 5 7 19 9 30 1 11 3 832 3
1825 1 1251 -2 1819 -9 1852 -6 26 -20 64 -32 85 -20 37 -115 134 -128 131 -3
-1 -24 6 -46 16 -38 17 -195 33 -207 20z"/>
<path d="M1640 5222 c-112 -37 -183 -113 -222 -237 -14 -46 -12 -2722 2 -2776
43 -157 172 -250 350 -251 51 0 101 13 165 42 63 28 144 126 161 193 1 4 2 8
4 10 8 10 9 203 10 1398 1 1197 0 1353 -14 1400 -33 111 -111 189 -222 222
-64 19 -177 19 -234 -1z"/>
<path d="M3487 4303 c-2 -1 -20 -5 -40 -8 -94 -15 -198 -89 -240 -171 -38 -73
-39 -96 -38 -998 0 -853 1 -883 20 -934 52 -141 181 -231 331 -234 63 -1 85 4
157 39 47 22 133 96 133 114 0 4 6 14 13 21 7 7 21 37 31 67 16 50 17 121 17
935 0 969 2 932 -61 1025 -38 56 -116 111 -180 128 -23 6 -140 19 -143 16z"/>
<path d="M289 1558 c-108 -19 -202 -92 -256 -198 -24 -48 -27 -67 -28 -145 0
-83 3 -96 34 -158 38 -77 90 -127 171 -166 l55 -26 3255 0 c3230 0 3255 0
3309 20 74 27 152 105 182 182 34 86 33 217 -3 294 -47 103 -136 175 -238 195
-48 9 -6427 11 -6481 2z"/>
</g>
</svg>
